inDegrees=no
num_controls=7
num_derivatives=13
num_iterations=117
num_multipliers=7
num_parameters=0
num_slacks=7
num_states=26
objective=0.480404
objective_accelerations=0.039941
objective_balance=0.003538
objective_effort=0.036878
objective_height=0.394266
objective_ligament=0.005782
solver_duration=1613.336582
status=Solve_Succeeded
success=true
DataType=double
version=3
OpenSimVersion=4.5
endheader
time	/jointset/ground_pelvis/pelvis_tilt/value	/jointset/ground_pelvis/pelvis_tx/value	/jointset/ground_pelvis/pelvis_ty/value	/jointset/hip_l/hip_flexion_l/value	/jointset/hip_l/hip_adduction_l/value	/jointset/hip_l/hip_rotation_l/value	/jointset/back/lumbar_extension/value	/jointset/patellofemoral_l/patellar_flexion_l/value	/jointset/knee_l/knee_flexion_l/value	/jointset/knee_l/knee_adduction_l/value	/jointset/knee_l/knee_rotation_l/value	/jointset/ankle_l/ankle_angle_l/value	/jointset/subtalar_l/subtalar_angle_l/value	/jointset/ground_pelvis/pelvis_tilt/speed	/jointset/ground_pelvis/pelvis_tx/speed	/jointset/ground_pelvis/pelvis_ty/speed	/jointset/hip_l/hip_flexion_l/speed	/jointset/hip_l/hip_adduction_l/speed	/jointset/hip_l/hip_rotation_l/speed	/jointset/back/lumbar_extension/speed	/jointset/patellofemoral_l/patellar_flexion_l/speed	/jointset/knee_l/knee_flexion_l/speed	/jointset/knee_l/knee_adduction_l/speed	/jointset/knee_l/knee_rotation_l/speed	/jointset/ankle_l/ankle_angle_l/speed	/jointset/subtalar_l/subtalar_angle_l/speed	/forceset/tau_hip_flexion_l	/forceset/tau_hip_adduction_l	/forceset/tau_hip_rotation_l	/forceset/tau_knee_flexion_l	/forceset/tau_ankle_angle_l	/forceset/tau_subtalar_angle_l	/forceset/tau_lumbar_extension	lambda_cid13_p0	lambda_cid13_p1	lambda_cid13_p2	lambda_cid13_p3	lambda_cid13_p4	lambda_cid13_p5	lambda_cid14_p0	/jointset/ground_pelvis/pelvis_tilt/accel	/jointset/ground_pelvis/pelvis_tx/accel	/jointset/ground_pelvis/pelvis_ty/accel	/jointset/hip_l/hip_flexion_l/accel	/jointset/hip_l/hip_adduction_l/accel	/jointset/hip_l/hip_rotation_l/accel	/jointset/back/lumbar_extension/accel	/jointset/patellofemoral_l/patellar_flexion_l/accel	/jointset/knee_l/knee_flexion_l/accel	/jointset/knee_l/knee_adduction_l/accel	/jointset/knee_l/knee_rotation_l/accel	/jointset/ankle_l/ankle_angle_l/accel	/jointset/subtalar_l/subtalar_angle_l/accel	gamma_cid13_p0	gamma_cid13_p1	gamma_cid13_p2	gamma_cid13_p3	gamma_cid13_p4	gamma_cid13_p5	gamma_cid14_p0
0	-0.03678259299644961	0.05665992992090383	0.9203423123590967	0.3085816938045678	-0.2956285843773574	-0.3013494579469254	-0.3879492264334186	0.2499269421184919	0.2499269421184919	-0.1745325651810797	-0.1742797297008699	-0.0008036623358878681	0.0004466188611358336	0	0	0	0	0	0	0	0	0	0	0	0	0	0.06222994146733324	-0.04036277922699885	-0.01940989645999929	-0.2395663588120839	0.1927851308026519	-0.01730737623786324	0.01355653402142036	18.08051461095658	1.743066334799282	2.24648934323313	5.942776535643397	-629.2835328555452	-70.34203777125144	-23.18832174513312	-0.74341230819905	-1.785197306654962	-0.8235947541701675	8.123324428406306	-0.8749167631474553	3.109900444618522	-6.755611308073012	8.507004592117312	8.507004592117331	0.9118062668298894	-0.02483827564287734	1.550444006850585	-0.4084913459530591	-3.916034986442786e-08	1.377150524863065e-07	1.754331736166471e-07	1.481056732073991e-08	1.028005610558572e-08	-7.175678070884845e-08	-1.359741951140267e-08
0.01	-0.03681651313842594	0.05657152939852023	0.920301988583395	0.3089789121115814	-0.2956716819801793	-0.3011948814652541	-0.3882887312392641	0.2503449982694185	0.2503449982694185	-0.1744881349051627	-0.1742793350614984	-0.0007279511351759079	0.000426250009306911	-0.00675362651395141	-0.01761120110817081	-0.008038525061105601	0.07918530892552879	-0.008501887612616603	0.03062171137752897	-0.06775839508095224	0.08335348875395149	0.08335348875395147	0.009048872648561843	-6.874260883936762e-05	0.01512795779708136	-0.003953838103456235	0.06127434786240706	-0.05135661221356993	-0.0193696493552388	-0.2404490230563751	0.1911489037623719	-0.006510979893160661	0.01490966127411255	17.89775527373357	-2.800305463739925	2.841179005603539	4.975228210076794	-630.8016423969842	-79.93891666820474	-23.19318120235507	-0.6367874269466846	-1.738743045502318	-0.7900448141856005	7.777371240510136	-0.8202256180886911	2.994248948999142	-6.764568694882295	8.210862521812635	8.210862521812627	0.9258916611389275	-0.0200172707303514	1.491830663606815	-0.3708821557681425	-3.854111662905826e-08	9.764303990557712e-08	1.544151782103772e-07	2.005850648763023e-08	-3.028306448694228e-08	-6.678482356082534e-08	-1.347537465060563e-08
0.02	-0.03691705946633249	0.0563090845585341	0.9201820668706613	0.310160230931027	-0.2957962786306815	-0.3007428993768718	-0.3893015430132744	0.2515888576088404	0.2515888576088404	-0.1743483231233061	-0.1742840528516604	-0.0005013885569991533	0.0003699323537981785	-0.01332523718604275	-0.03480886352050862	-0.01591958740640492	0.1568201024864165	-0.01629980953603034	0.05948112134222028	-0.1346613936329431	0.1651606376990458	0.1651606376990458	0.01907630118790754	-0.001022485906714137	0.03017027549295887	-0.007189760735961942	0.06031875425748088	-0.062350445200141	-0.01932940225047822	-0.2413316873006665	0.1895126767220919	0.004285416451541924	0.01626278852680476	17.78079694135464	-7.354523863033883	3.436827289643058	3.899900415909956	-631.3385845775221	-89.45486885316731	-23.20767685054808	-0.7070091398270357	-1.70248956748836	-0.7921022110089112	7.813221355478094	-0.734123625306883	2.757440162050991	-6.584532002280727	8.197736630345879	8.197736630345904	1.10751744498666	-0.2018384134499575	1.533315986609817	-0.2649082517629536	-3.792188339368865e-08	5.757102732484773e-08	1.333971828041073e-07	2.530644565452054e-08	-7.084618507947028e-08	-6.181286641280222e-08	-1.33533297898086e-08
0.03	-0.03708227679184643	0.05587748583233298	0.9199840581960258	0.3121078653165388	-0.2959961964572516	-0.3000087753849306	-0.390974421127009	0.2536411350718558	0.2536411350718558	-0.1741062478580571	-0.1743002150989277	-0.0001249429471137061	0.0002838747756609931	-0.01965634059251225	-0.0513668537933917	-0.02365941697398233	0.2322013503773517	-0.02365820616994826	0.08734109441473704	-0.199324321954911	0.2448432462686592	0.2448432462686594	0.02919531295814072	-0.002055327510135488	0.04509669448085057	-0.01000441082104117	0.05251269158158866	-0.05513077405553266	-0.01837584430829897	-0.2346679923015408	0.1838331665312379	0.00223060111405621	0.02328942792729229	15.8059085181562	-6.20556540714893	3.355581322641338	3.995573706417272	-633.405901513765	-86.06518437372976	-23.23144019631236	-0.5868818037048806	-1.610844485748043	-0.7615280807548899	7.324757188658692	-0.7328902163496922	2.799870624904015	-6.318687173292457	7.785784345133315	7.785784345133332	0.942599493117843	-0.03079031281939784	1.468981541893729	-0.2871658785613214	-6.941489523723725e-08	6.566542247319993e-08	2.273521283664597e-07	5.082383158762485e-08	-1.705831465555142e-07	-1.186334182176144e-07	-2.4109147056315e-08
